<?xml version="1.0" encoding="UTF-8" standalone="no"?>
<!DOCTYPE svg PUBLIC "-//W3C//DTD SVG 1.1//EN" "http://www.w3.org/Graphics/SVG/1.1/DTD/svg11.dtd">
<svg width="100%" height="100%" viewBox="0 0 842 662" version="1.1" xmlns="http://www.w3.org/2000/svg" xmlns:xlink="http://www.w3.org/1999/xlink" xml:space="preserve" xmlns:serif="http://www.serif.com/" style="fill-rule:evenodd;clip-rule:evenodd;stroke-linejoin:round;stroke-miterlimit:2;">
    <g id="Artboard1" transform="matrix(1.01937,0,0,1,-238.533,-41)">
        <rect x="234" y="41" width="826" height="662" style="fill:none;"/>
        <g id="Arrow" transform="matrix(0.980998,0,0,1,20.1425,0)">
            <path id="Arrow1" serif:id="Arrow" d="M380.219,381.069C383.824,293.118 431.781,212.645 508.044,167.724L523.632,194.188C456.743,233.587 414.546,304 410.962,381.069L426.955,381.069L396.477,442.024L366,381.069L380.219,381.069Z" style="fill:rgb(51,104,158);"/>
            <path id="Arrow2" serif:id="Arrow" d="M795.477,221.914L785.53,232.58L761.736,168.719L827.102,188.001L815.72,200.206C873.752,253.42 904.559,330.047 899.453,408.614C898.723,419.833 897.266,430.993 895.091,442.024L865.952,436.285C867.879,426.513 869.169,416.627 869.816,406.688C874.344,337.013 846.991,269.062 795.477,221.914Z" style="fill:rgb(51,104,158);"/>
            <path id="Arrow3" serif:id="Arrow" d="M774.05,614.529C688.241,666.164 580.37,663.932 496.754,608.731C488.788,603.472 481.118,597.778 473.778,591.675L491.192,570.73C497.763,576.193 504.63,581.29 511.761,585.998C586.523,635.355 682.945,637.409 759.717,591.363L750.758,576.883L818.63,570.73L782.829,628.719L774.05,614.529Z" style="fill:rgb(51,104,158);"/>
        </g>
        <g id="Titles" transform="matrix(0.980998,0,0,1,20.1425,0)">
            <g transform="matrix(1,0,0,1,-167.491,-44.9237)">
                <text x="900px" y="577px" style="font-family:'ArialMT', 'Arial', sans-serif;font-size:85.159px;">Process</text>
            </g>
            <g transform="matrix(1,0,0,1,-40.4254,154.076)">
                <text x="294px" y="378px" style="font-family:'ArialMT', 'Arial', sans-serif;font-size:85.159px;">Widgets</text>
            </g>
            <g transform="matrix(1,0,0,1,31.0838,36.9605)">
                <text x="507px" y="128px" style="font-family:'ArialMT', 'Arial', sans-serif;font-size:85.159px;">State</text>
            </g>
        </g>
    </g>
</svg>
